<svg width="20" height="20" viewBox="0 0 20 20" fill="none" xmlns="http://www.w3.org/2000/svg">
<path d="M16.137 0.728311C15.6231 0.23627 14.9654 0 14.3026 0C13.5564 0 12.8029 0.299275 12.2411 0.871573L12 1.11684L11.7589 0.870823C11.1971 0.299275 10.4436 0 9.69741 0C9.03458 0 8.37691 0.23627 7.86301 0.728311C6.73272 1.81065 6.71282 3.6213 7.80255 4.72989L12 9L16.1975 4.72989C17.2872 3.6213 17.2673 1.81065 16.137 0.728311Z" fill="#969696"/>
<path d="M19.739 10.6217C19.1143 10.2112 18.3783 10.3275 17.7265 10.6923C17.0747 11.0572 13.3325 14.1601 13.3325 14.1601L9.64889 14.1608C9.47756 14.1608 9.29195 13.9738 9.29195 13.8084C9.29195 13.6138 9.46685 13.4622 9.64889 13.4622H11.9026C12.6915 13.4622 13.5746 12.9638 13.5746 12.0776C13.5746 11.1361 12.6915 10.693 11.9026 10.693C10.5341 10.693 10.2678 10.6985 10.2678 10.6985C9.71957 10.6985 9.16345 10.6667 8.73512 10.4445C8.16401 10.1606 7.5058 10 6.80334 10C5.624 10 4.56816 10.4562 3.84428 11.1755L0 14.8462L4.28332 19L5.71109 17.6154H12.9406C13.6602 17.6154 14.3548 17.3592 14.8924 16.8961L19.7875 11.5708C20.0866 11.3133 20.0695 10.8398 19.739 10.6217Z" fill="#969696"/>
</svg>
